#!OML:ASF H:\ManfredETheater\Project 1\Capture day 1\Session 1\subject.ASF
:FULLY-SPECIFIED
:DEGREES
294
root -12.9566 17.3166 -36.2817 -163.617 -25.346 175.284
lowerback 8.84256 -0.685602 -2.59107
upperback -1.92173 -1.19675 0.243392
thorax -6.93159 -0.474507 1.88951
lowerneck -17.7942 -0.535302 -2.5807
upperneck 8.52611 -0.11639 -0.23642
head 5.4529 -0.181163 0.326028
rclavicle 4.91992e-014 -8.34896e-015
rhumerus -44.04 3.02303 -92.4153
rradius 62.3347
rwrist -10.3376
rhand -25.7364 4.59965
rfingers 7.12502
rthumb 0.800318 -25.3786
lclavicle 4.91992e-014 -8.34896e-015
lhumerus -42.6551 -7.81266 96.1944
lradius 63.5464
lwrist 3.60808
lhand -15.8065 -4.40836
lfingers 7.12502
lthumb 10.3868 25.3151
rfemur -39.6982 -6.15481 18.0332
rtibia 67.2612
rfoot -21.7527 -14.4643
rtoes -29.0578
lfemur -18.463 -5.81493 -26.7673
ltibia 41.4657
lfoot -35.2178 -4.3967
ltoes 6.441
295
root -13.0079 17.2991 -36.399 -163.262 -25.3289 175.164
lowerback 9.01473 -0.799802 -2.68427
upperback -1.92125 -1.36488 0.24837
thorax -7.01928 -0.551387 1.9754
lowerneck -17.7855 -0.463536 -2.51228
upperneck 8.04312 -0.0576793 -0.17521
head 5.29751 -0.144374 0.339754
rclavicle 4.94974e-014 7.15625e-015
rhumerus -44.331 2.67004 -92.1534
rradius 61.588
rwrist -10.5452
rhand -25.9337 4.58255
rfingers 7.12502
rthumb 0.609761 -25.3963
lclavicle 4.94974e-014 7.15625e-015
lhumerus -42.4738 -8.2003 96.4721
lradius 64.5805
lwrist 3.83917
lhand -16.0012 -4.60363
lfingers 7.12502
lthumb 10.199 25.1291
rfemur -41.0542 -6.39725 18.0663
rtibia 67.7216
rfoot -21.7771 -14.1117
rtoes -29.32
lfemur -18.1192 -5.80624 -26.8839
ltibia 41.0831
lfoot -35.3109 -4.3961
ltoes 6.57221
296
root -13.0597 17.2804 -36.5191 -162.911 -25.2904 175.05
lowerback 9.19912 -0.907793 -2.77999
upperback -1.91958 -1.52571 0.254319
thorax -7.11246 -0.624287 2.06373
lowerneck -17.7891 -0.389504 -2.44674
upperneck 7.564 0.00333497 -0.107662
head 5.14566 -0.107181 0.355881
rclavicle -2.68359e-015 -9.14409e-015
rhumerus -44.6256 2.29126 -91.8441
rradius 60.7928
rwrist -10.6681
rhand -26.093 4.55817
rfingers 7.12502
rthumb 0.455907 -25.4211
lclavicle -2.68359e-015 -9.14409e-015
lhumerus -42.2871 -8.6061 96.7439
lradius 65.6564
lwrist 4.10876
lhand -16.2134 -4.85374
lfingers 7.12502
lthumb 9.99429 24.889
rfemur -42.4306 -6.60513 18.0975
rtibia 68.0785
rfoot -21.8256 -13.7452
rtoes -29.5969
lfemur -17.7585 -5.79496 -27.0014
ltibia 40.6895
lfoot -35.3896 -4.39055
ltoes 6.83397
297
root -13.1125 17.2606 -36.6422 -162.566 -25.2336 174.947
lowerback 9.37619 -1.01035 -2.87504
upperback -1.90358 -1.6789 0.263336
thorax -7.18591 -0.693763 2.15412
lowerneck -17.8156 -0.314178 -2.38183
upperneck 7.07979 0.0650876 -0.0385535
head 4.99614 -0.0707919 0.372371
rclavicle 6.21202e-014 3.18055e-015
rhumerus -44.9075 1.89029 -91.4861
rradius 59.9587
rwrist -10.7434
rhand -26.2156 4.52994
rfingers 7.12502
rthumb 0.337514 -25.4495
lclavicle 6.21202e-014 3.18055e-015
lhumerus -42.0719 -9.0344 97.0072
lradius 66.7736
lwrist 4.39592
lhand -16.4363 -5.11967
lfingers 7.12502
lthumb 9.77919 24.6333
rfemur -43.8217 -6.78196 18.1295
rtibia 68.3425
rfoot -21.8881 -13.3777
rtoes -29.9057
lfemur -17.3767 -5.78625 -27.1171
ltibia 40.2847
lfoot -35.4596 -4.37151
ltoes 7.12807
298
root -13.1658 17.2392 -36.7681 -162.227 -25.1517 174.853
lowerback 9.55734 -1.1048 -2.97282
upperback -1.88448 -1.82205 0.272685
thorax -7.25832 -0.758131 2.24563
lowerneck -17.8488 -0.236984 -2.32347
upperneck 6.596 0.128672 0.0404213
head 4.84804 -0.0341467 0.392927
rclavicle -1.55052e-014 9.93923e-015
rhumerus -45.1979 1.46648 -91.0843
rradius 59.099
rwrist -10.8036
rhand -26.3015 4.48937
rfingers 7.12502
rthumb 0.254521 -25.4902
lclavicle -1.55052e-014 9.93923e-015
lhumerus -41.8432 -9.48568 97.2587
lradius 67.9262
lwrist 4.67907
lhand -16.6642 -5.42028
lfingers 7.12502
lthumb 9.55935 24.3429
rfemur -45.2329 -6.91939 18.1596
rtibia 68.5293
rfoot -21.9717 -13.0154
rtoes -30.2098
lfemur -16.9771 -5.78759 -27.2337
ltibia 39.8702
lfoot -35.5246 -4.31638
ltoes 7.43819
299
root -13.2197 17.2162 -36.8967 -161.89 -25.047 174.762
lowerback 9.73452 -1.19209 -3.07633
upperback -1.85791 -1.95655 0.28174
thorax -7.32026 -0.818237 2.3391
lowerneck -17.8859 -0.158847 -2.26599
upperneck 6.10223 0.192 0.120753
head 4.69769 0.00118462 0.413751
rclavicle -5.47652e-014 2.70347e-014
rhumerus -45.4985 1.02277 -90.6402
rradius 58.237
rwrist -10.8941
rhand -26.3476 4.40785
rfingers 7.12502
rthumb 0.209992 -25.5718
lclavicle -5.47652e-014 2.70347e-014
lhumerus -41.5927 -9.96263 97.4959
lradius 69.1067
lwrist 4.95398
lhand -16.8977 -5.74965
lfingers 7.12502
lthumb 9.33404 24.0237
rfemur -46.6648 -7.02812 18.1844
rtibia 68.6513
rfoot -22.0734 -12.666
rtoes -30.5091
lfemur -16.5617 -5.80031 -27.3563
ltibia 39.4493
lfoot -35.6045 -4.24156
ltoes 7.72398
300
root -13.2744 17.1909 -37.0278 -161.551 -24.9231 174.66
lowerback 9.90777 -1.27201 -3.19468
upperback -1.82253 -2.0836 0.286263
thorax -7.37011 -0.874497 2.43525
lowerneck -17.9296 -0.0829647 -2.21808
upperneck 5.6013 0.252247 0.20785
head 4.54642 0.0338875 0.437684
rclavicle 5.96354e-015 -1.63003e-014
rhumerus -45.8118 0.557661 -90.1533
rradius 57.3911
rwrist -11.0506
rhand -26.3468 4.26546
rfingers 7.12502
rthumb 0.210802 -25.7142
lclavicle 5.96354e-015 -1.63003e-014
lhumerus -41.3183 -10.4726 97.7198
lradius 70.3216
lwrist 5.21087
lhand -17.1257 -6.05768
lfingers 7.12502
lthumb 9.11409 23.7254
rfemur -48.1112 -7.12314 18.1922
rtibia 68.7222
rfoot -22.1852 -12.3377
rtoes -30.7908
lfemur -16.1236 -5.81351 -27.4993
ltibia 39.0257
lfoot -35.7191 -4.13666
ltoes 7.88106
301
root -13.3296 17.1635 -37.1609 -161.23 -24.789 174.572
lowerback 10.0987 -1.347 -3.3015
upperback -1.78134 -2.20354 0.292004
thorax -7.42412 -0.927663 2.52609
lowerneck -17.9638 -0.00683538 -2.16855
upperneck 5.08412 0.310599 0.293172
head 4.38885 0.0642523 0.460359
rclavicle -3.70733e-014 -1.19271e-015
rhumerus -46.15 0.082445 -89.6318
rradius 56.5845
rwrist -11.3136
rhand -26.3081 4.06941
rfingers 7.12502
rthumb 0.248208 -25.9102
lclavicle -3.70733e-014 -1.19271e-015
lhumerus -41.0251 -11.0119 97.9262
lradius 71.5701
lwrist 5.44881
lhand -17.3711 -6.41048
lfingers 7.12502
lthumb 8.87726 23.3828
rfemur -49.5584 -7.20658 18.2129
rtibia 68.7502
rfoot -22.2994 -12.0487
rtoes -31.0563
lfemur -15.6578 -5.84153 -27.6362
ltibia 38.6025
lfoot -35.8563 -3.98321
ltoes 7.92292
302
root -13.385 17.1338 -37.296 -160.919 -24.6378 174.482
lowerback 10.3101 -1.4129 -3.41855
upperback -1.73327 -2.31406 0.295708
thorax -7.48228 -0.975805 2.6202
lowerneck -18.0266 0.0680023 -2.14885
upperneck 4.58224 0.37055 0.407268
head 4.24058 0.0952124 0.496742
rclavicle 3.08116e-015 -1.39149e-014
rhumerus -46.5162 -0.398079 -89.0787
rradius 55.843
rwrist -11.7039
rhand -26.2536 3.82563
rfingers 7.12502
rthumb 0.30081 -26.1539
lclavicle 3.08116e-015 -1.39149e-014
lhumerus -40.711 -11.5838 98.1151
lradius 72.8609
lwrist 5.6787
lhand -17.6154 -6.75733
lfingers 7.12502
lthumb 8.64151 23.0458
rfemur -51.0116 -7.2763 18.2318
rtibia 68.7469
rfoot -22.4012 -11.8078
rtoes -31.3115
lfemur -15.168 -5.85371 -27.7809
ltibia 38.1805
lfoot -36.0168 -3.82309
ltoes 7.88366
303
root -13.4407 17.1016 -37.4334 -160.621 -24.4786 174.386
lowerback 10.535 -1.47349 -3.54663
upperback -1.67668 -2.42025 0.296969
thorax -7.53851 -1.02158 2.71811
lowerneck -18.0875 0.142906 -2.15036
upperneck 4.07354 0.432234 0.538389
head 4.08995 0.12634 0.541712
rclavicle 1.72943e-014 4.77083e-015
rhumerus -46.9234 -0.872384 -88.5026
rradius 55.1948
rwrist -12.2037
rhand -26.2016 3.54374
rfingers 7.12502
rthumb 0.350996 -26.4357
lclavicle 1.72943e-014 4.77083e-015
lhumerus -40.3838 -12.1861 98.2833
lradius 74.2063
lwrist 5.91005
lhand -17.8629 -7.11028
lfingers 7.12502
lthumb 8.40263 22.7026
rfemur -52.4601 -7.34474 18.2505
rtibia 68.72
rfoot -22.4786 -11.6228
rtoes -31.5413
lfemur -14.6489 -5.83988 -27.9324
ltibia 37.7596
lfoot -36.2033 -3.66965
ltoes 7.75095
304
root -13.4962 17.0669 -37.573 -160.332 -24.316 174.286
lowerback 10.7834 -1.52775 -3.68694
upperback -1.60416 -2.52091 0.301304
thorax -7.59028 -1.06442 2.82637
lowerneck -18.204 0.212197 -2.17918
upperneck 3.5749 0.489965 0.68482
head 3.95099 0.154099 0.59532
rclavicle 8.65707e-014 -8.34896e-015
rhumerus -47.3535 -1.32872 -87.9046
rradius 54.668
rwrist -12.7737
rhand -26.1856 3.25121
rfingers 7.12502
rthumb 0.366507 -26.7282
lclavicle 8.65707e-014 -8.34896e-015
lhumerus -40.0161 -12.8219 98.4331
lradius 75.6066
lwrist 6.15131
lhand -18.1376 -7.46566
lfingers 7.12502
lthumb 8.13754 22.3576
rfemur -53.9072 -7.41084 18.2749
rtibia 68.6777
rfoot -22.5278 -11.4885
rtoes -31.705
lfemur -14.1056 -5.8114 -28.0847
ltibia 37.3366
lfoot -36.401 -3.53205
ltoes 7.58037
